<svg width="40" height="40" viewBox="0 0 40 40" fill="none" xmlns="http://www.w3.org/2000/svg">
<path d="M16.25 0C14.1789 0 12.5 1.67893 12.5 3.75V6.25C12.5 8.32107 14.1789 10 16.25 10H23.75C25.8211 10 27.5 8.32107 27.5 6.25V3.75C27.5 1.67893 25.8211 0 23.75 0H16.25ZM23.75 2.5C24.4404 2.5 25 3.05964 25 3.75V6.25C25 6.94036 24.4404 7.5 23.75 7.5H16.25C15.5596 7.5 15 6.94036 15 6.25V3.75C15 3.05964 15.5596 2.5 16.25 2.5H23.75Z" fill="#2E3192"/>
<path d="M10 3.75H7.5C4.73858 3.75 2.5 5.98857 2.5 8.75V35C2.5 37.7614 4.73858 40 7.5 40H32.5C35.2614 40 37.5 37.7614 37.5 35V8.75C37.5 5.98858 35.2614 3.75 32.5 3.75H30V6.25C30 9.70178 27.2018 12.5 23.75 12.5H16.25C12.7982 12.5 10 9.70178 10 6.25V3.75ZM25 20C25 18.6193 26.1193 17.5 27.5 17.5C28.8807 17.5 30 18.6193 30 20V32.5C30 33.8807 28.8807 35 27.5 35C26.1193 35 25 33.8807 25 32.5V20ZM10 30C10 28.6193 11.1193 27.5 12.5 27.5C13.8807 27.5 15 28.6193 15 30V32.5C15 33.8807 13.8807 35 12.5 35C11.1193 35 10 33.8807 10 32.5V30ZM20 22.5C21.3807 22.5 22.5 23.6193 22.5 25V32.5C22.5 33.8807 21.3807 35 20 35C18.6193 35 17.5 33.8807 17.5 32.5V25C17.5 23.6193 18.6193 22.5 20 22.5Z" fill="#2E3192"/>
</svg>
