<?xml version="1.0" encoding="UTF-8"?>
<svg version="1.1" xmlns="http://www.w3.org/2000/svg" width="104" height="100">
<path d="M0 0 C1.06152786 -0.0127597 2.12305573 -0.02551941 3.2167511 -0.03866577 C4.93706795 -0.04200424 4.93706795 -0.04200424 6.69213867 -0.04541016 C8.46230598 -0.05539536 8.46230598 -0.05539536 10.26823425 -0.06558228 C12.76734863 -0.07571573 15.2664901 -0.08039908 17.765625 -0.08007812 C21.58468439 -0.0844436 25.4025813 -0.120737 29.22143555 -0.15869141 C31.64916597 -0.16456093 34.07690188 -0.16852942 36.50463867 -0.17041016 C38.21584648 -0.19196671 38.21584648 -0.19196671 39.96162415 -0.21395874 C46.16943167 -0.17829225 50.18131109 -0.06035466 54.79760742 4.29052734 C56.9944695 7.37132927 57.03432163 9.98624897 56.99291992 13.71240234 C56.98647461 14.73720703 56.9800293 15.76201172 56.97338867 16.81787109 C56.94825195 18.41308594 56.94825195 18.41308594 56.92260742 20.04052734 C56.91358398 21.11947266 56.90456055 22.19841797 56.89526367 23.31005859 C56.87172047 25.97044012 56.83883541 28.6303707 56.79760742 31.29052734 C57.4629248 31.26958008 58.12824219 31.24863281 58.8137207 31.22705078 C61.84986044 31.14352125 64.88575785 31.09175131 67.92260742 31.04052734 C68.96932617 31.00701172 70.01604492 30.97349609 71.09448242 30.93896484 C77.30275652 30.8603791 81.17458847 30.95549974 85.79760742 35.29052734 C87.75046078 38.42184942 88.05761505 40.85337129 88.08813477 44.51464844 C88.10089447 45.55608002 88.11365417 46.5975116 88.12680054 47.67050171 C88.12902618 48.79034454 88.13125183 49.91018738 88.13354492 51.06396484 C88.14353012 52.79871567 88.14353012 52.79871567 88.15371704 54.56851196 C88.16384066 57.01457123 88.16853415 59.46065809 88.16821289 61.90673828 C88.17258285 65.64450726 88.2088989 69.38109251 88.24682617 73.11865234 C88.25269501 75.49625248 88.25666395 77.87385821 88.25854492 80.25146484 C88.27291595 81.36725922 88.28728699 82.48305359 88.30209351 83.63265991 C88.26577023 89.81754442 88.0323167 93.63627437 83.79760742 98.29052734 C80.49113013 100.49484554 79.44498113 100.54965004 75.59521484 100.58105469 C74.53368698 100.59381439 73.47215912 100.6065741 72.37846375 100.61972046 C70.6581469 100.62305893 70.6581469 100.62305893 68.90307617 100.62646484 C67.13290886 100.63645004 67.13290886 100.63645004 65.32698059 100.64663696 C62.82786622 100.65677042 60.32872474 100.66145377 57.82958984 100.66113281 C54.01053045 100.66549828 50.19263354 100.70179169 46.3737793 100.73974609 C43.94604887 100.74561562 41.51831296 100.7495841 39.09057617 100.75146484 C37.37936836 100.77302139 37.37936836 100.77302139 35.6335907 100.79501343 C29.42578317 100.75934694 25.41390375 100.64140935 20.79760742 96.29052734 C18.60074534 93.20972541 18.56089322 90.59480572 18.60229492 86.86865234 C18.60874023 85.84384766 18.61518555 84.81904297 18.62182617 83.76318359 C18.63858398 82.69970703 18.6553418 81.63623047 18.67260742 80.54052734 C18.68163086 79.46158203 18.6906543 78.38263672 18.69995117 77.27099609 C18.72349437 74.61061457 18.75637943 71.95068398 18.79760742 69.29052734 C17.79963135 69.32194824 17.79963135 69.32194824 16.78149414 69.35400391 C13.7453544 69.43753343 10.70945699 69.48930338 7.67260742 69.54052734 C6.62588867 69.57404297 5.57916992 69.60755859 4.50073242 69.64208984 C-1.70754168 69.72067559 -5.57937362 69.62555495 -10.20239258 65.29052734 C-12.15524594 62.15920527 -12.46240021 59.7276834 -12.49291992 56.06640625 C-12.50567963 55.02497467 -12.51843933 53.98354309 -12.53158569 52.91055298 C-12.53381134 51.79071014 -12.53603699 50.67086731 -12.53833008 49.51708984 C-12.54498688 48.36058929 -12.55164368 47.20408875 -12.5585022 46.01254272 C-12.56862581 43.56648346 -12.57331931 41.1203966 -12.57299805 38.67431641 C-12.577368 34.93654743 -12.61368406 31.19996218 -12.65161133 27.46240234 C-12.65748017 25.08480221 -12.66144911 22.70719648 -12.66333008 20.32958984 C-12.67770111 19.21379547 -12.69207214 18.0980011 -12.70687866 16.94839478 C-12.67055539 10.76351027 -12.43710186 6.94478032 -8.20239258 2.29052734 C-4.89591529 0.08620915 -3.84976629 0.03140465 0 0 Z M-3.49609375 12.94506836 C-4.57661268 16.53322783 -4.50743182 20.10431826 -4.50317383 23.81787109 C-4.50745895 24.64380264 -4.51174408 25.46973419 -4.51615906 26.32069397 C-4.52189323 28.06477951 -4.52240934 29.80888896 -4.51806641 31.55297852 C-4.51490773 34.21526058 -4.53837163 36.87642956 -4.5637207 39.53857422 C-4.56599399 41.23583845 -4.56669706 42.93310565 -4.56567383 44.63037109 C-4.57488358 45.42322006 -4.58409332 46.21606903 -4.59358215 47.03294373 C-4.55568328 51.58108447 -4.22236769 54.64734889 -1.20239258 58.29052734 C2.42261128 61.12495193 6.92774044 60.59635047 11.32495117 60.59130859 C12.5638485 60.59773628 12.5638485 60.59773628 13.82777405 60.60429382 C15.57185959 60.610028 17.31596904 60.6105441 19.06005859 60.60620117 C21.72234066 60.60304249 24.38350964 60.6265064 27.0456543 60.65185547 C28.74291852 60.65412876 30.44018573 60.65483182 32.13745117 60.65380859 C33.32672462 60.66762321 33.32672462 60.66762321 34.5400238 60.68171692 C39.11208564 60.64361871 42.08979732 60.25286561 45.79760742 57.29052734 C48.38474914 53.40981477 48.10338097 50.14415309 48.09838867 45.64208984 C48.10481636 44.36777603 48.10481636 44.36777603 48.1113739 43.06771851 C48.11711606 41.27057791 48.1176183 39.47341407 48.11328125 37.67626953 C48.11012716 34.93269936 48.13356073 32.19021372 48.15893555 29.44677734 C48.16120921 27.69938287 48.16191173 25.9519855 48.16088867 24.20458984 C48.17009842 23.38673004 48.17930817 22.56887024 48.188797 21.72622681 C48.1515796 17.12095695 47.87243086 13.97162339 44.79760742 10.29052734 C41.17260356 7.45610275 36.66747441 7.98470422 32.27026367 7.98974609 C31.03136635 7.98331841 31.03136635 7.98331841 29.7674408 7.97676086 C28.02335526 7.97102669 26.27924581 7.97051058 24.53515625 7.97485352 C21.87287418 7.9780122 19.21170521 7.95454829 16.54956055 7.92919922 C14.85229632 7.92692593 13.15502911 7.92622287 11.45776367 7.92724609 C10.6649147 7.91803635 9.87206573 7.9088266 9.05519104 7.89933777 C3.78244396 7.94327466 -0.04980999 8.53754523 -3.49609375 12.94506836 Z " fill="#FEFEFE" transform="translate(12.202392578125,-0.29052734375)"/>
<path d="M0 0 C2.97 0 5.94 0 9 0 C10.5729434 4.07269123 12.13933576 8.14782243 13.69970703 12.2253418 C14.23144063 13.61209913 14.76495802 14.99817385 15.30029297 16.38354492 C16.06948357 18.37502078 16.83222484 20.36886369 17.59375 22.36328125 C18.05458984 23.56251221 18.51542969 24.76174316 18.99023438 25.99731445 C20 29 20 29 20 32 C17.36 32 14.72 32 12 32 C10.74335022 29.09399739 10 27.20395416 10 24 C6.37 24.33 2.74 24.66 -1 25 C-1.99 27.31 -2.98 29.62 -4 32 C-6.64 32 -9.28 32 -12 32 C-10.45324272 27.76361 -8.90495025 23.52778551 -7.35522461 19.29248047 C-6.82810783 17.85122924 -6.30141288 16.40982367 -5.77514648 14.96826172 C-5.01917261 12.89770557 -4.26168965 10.82770697 -3.50390625 8.7578125 C-3.26845596 8.11192169 -3.03300568 7.46603088 -2.79042053 6.80056763 C-1.94032069 4.48190141 -1.10544695 2.2108939 0 0 Z M4 9 C1.70954986 13.81209901 1.70954986 13.81209901 1 19 C3.31 19 5.62 19 8 19 C7.01 15.7 6.02 12.4 5 9 C4.67 9 4.34 9 4 9 Z " fill="#FFFFFF" transform="translate(30,18)"/>
<path d="M0 0 C1.57043101 0.01330874 3.14079971 0.03717648 4.7109375 0.0703125 C5.51273438 0.07933594 6.31453125 0.08835938 7.140625 0.09765625 C9.12252273 0.12125027 11.10426731 0.15712185 13.0859375 0.1953125 C13.0859375 2.1753125 13.0859375 4.1553125 13.0859375 6.1953125 C5.8259375 6.1953125 -1.4340625 6.1953125 -8.9140625 6.1953125 C-8.9140625 8.1753125 -8.9140625 10.1553125 -8.9140625 12.1953125 C-1.3240625 12.1953125 6.2659375 12.1953125 14.0859375 12.1953125 C14.0859375 14.5053125 14.0859375 16.8153125 14.0859375 19.1953125 C3.8559375 19.1953125 -6.3740625 19.1953125 -16.9140625 19.1953125 C-16.9140625 14.5753125 -16.9140625 9.9553125 -16.9140625 5.1953125 C-14.11458333 4.47916667 -11.31510417 3.76302083 -8.515625 3.046875 C-4.56085284 1.75237 -4.53309505 0.22620235 0 0 Z " fill="#343795" transform="translate(66.9140625,62.8046875)"/>
<path d="M0 0 C4.29 0 8.58 0 13 0 C13 1.98 13 3.96 13 6 C8.71 6 4.42 6 0 6 C0 4.02 0 2.04 0 0 Z " fill="#2E3192" transform="translate(68,50)"/>
</svg>
