<svg width="26" height="26" viewBox="0 0 26 26" fill="none" xmlns="http://www.w3.org/2000/svg">
<path d="M17.875 9.75C17.875 12.4424 15.6924 14.625 13 14.625C10.3076 14.625 8.125 12.4424 8.125 9.75C8.125 7.05761 10.3076 4.875 13 4.875C15.6924 4.875 17.875 7.05761 17.875 9.75Z" fill="white"/>
<path d="M3.25 0C1.45507 0 0 1.45507 0 3.25V22.75C0 24.5449 1.45507 26 3.25 26H22.75C24.5449 26 26 24.5449 26 22.75V3.25C26 1.45507 24.5449 0 22.75 0H3.25ZM22.75 1.625C23.6475 1.625 24.375 2.35254 24.375 3.25V22.75C24.375 23.6475 23.6475 24.375 22.75 24.375V22.75C22.75 21.125 21.125 16.25 13 16.25C4.875 16.25 3.25 21.125 3.25 22.75V24.375C2.35254 24.375 1.625 23.6475 1.625 22.75V3.25C1.625 2.35254 2.35254 1.625 3.25 1.625H22.75Z" fill="white"/>
</svg>
