<svg width="23" height="26" viewBox="0 0 23 26" fill="none" xmlns="http://www.w3.org/2000/svg">
<path d="M11.375 26C13.1699 26 14.625 24.5449 14.625 22.75H8.125C8.125 24.5449 9.58007 26 11.375 26Z" fill="white"/>
<path d="M11.375 3.11716L10.0796 3.37878C7.11023 3.97847 4.87504 6.60502 4.87504 9.75C4.87504 10.7702 4.65669 13.3205 4.12938 15.831C3.86761 17.0773 3.51738 18.3749 3.0519 19.5H19.6981C19.2326 18.3749 18.8824 17.0773 18.6207 15.831C18.0934 13.3205 17.875 10.7702 17.875 9.75C17.875 6.605 15.6398 3.97844 12.6705 3.37877L11.375 3.11716ZM21.4814 19.5C21.8442 20.227 22.2649 20.8016 22.75 21.125H0C0.485106 20.8016 0.905851 20.227 1.26864 19.5C2.72874 16.574 3.25004 11.1786 3.25004 9.75C3.25004 5.81643 6.04533 2.53573 9.75787 1.78594C9.75266 1.733 9.75 1.67931 9.75 1.625C9.75 0.727537 10.4775 0 11.375 0C12.2725 0 13 0.727537 13 1.625C13 1.67931 12.9973 1.73299 12.9921 1.78593C16.7047 2.53569 19.5 5.8164 19.5 9.75C19.5 11.1786 20.0213 16.574 21.4814 19.5Z" fill="white"/>
</svg>
