<svg width="42" height="42" viewBox="0 0 42 42" fill="none" xmlns="http://www.w3.org/2000/svg">
<path d="M32.8125 42C37.8866 42 42 37.8866 42 32.8125C42 27.7384 37.8866 23.625 32.8125 23.625C27.7384 23.625 23.625 27.7384 23.625 32.8125C23.625 37.8866 27.7384 42 32.8125 42ZM37.2192 30.2065L33.7141 36.0483C33.0552 37.1466 31.5395 37.3332 30.6338 36.4275L28.6032 34.3968C28.0906 33.8843 28.0906 33.0532 28.6032 32.5407C29.1157 32.0281 29.9468 32.0281 30.4593 32.5407L31.8957 33.977L34.9683 28.856C35.3412 28.2344 36.1475 28.0328 36.769 28.4058C37.3906 28.7787 37.5922 29.585 37.2192 30.2065Z" fill="#2E3192"/>
<path d="M28.875 13.125C28.875 17.4742 25.3492 21 21 21C16.6508 21 13.125 17.4742 13.125 13.125C13.125 8.77576 16.6508 5.25 21 5.25C25.3492 5.25 28.875 8.77576 28.875 13.125Z" fill="#2E3192"/>
<path d="M5.25 34.125C5.25 36.75 7.875 36.75 7.875 36.75H21.6722C21.2369 35.5184 21 34.1931 21 32.8125C21 29.2591 22.569 26.0722 25.0519 23.9067C23.8273 23.7252 22.4805 23.625 21 23.625C7.875 23.625 5.25 31.5 5.25 34.125Z" fill="#2E3192"/>
</svg>
