<svg width="36" height="36" viewBox="0 0 36 36" fill="none" xmlns="http://www.w3.org/2000/svg">
<path d="M27.9934 4.36587H26.4896V2.99981C26.4896 2.94214 26.2779 2.35456 26.2267 2.26707C26.0351 1.93798 25.6188 1.67053 25.2536 1.57608C17.9871 1.32454 10.6695 1.54327 3.38393 1.46572C2.44389 1.53929 1.57509 1.97476 1.50386 2.99683V32.3165C1.49884 33.0761 1.93525 33.6448 2.61545 33.947L25.1121 34.0107C25.7341 34.0117 26.4906 33.1258 26.4906 32.5611V23.6598H27.9944V32.8096C27.9944 34.2254 26.2568 35.6243 24.8593 35.5825L3.29966 35.5875C1.49784 35.508 0.14547 34.3925 0 32.5651V2.91331C0.0722334 1.30466 1.51289 -0.00871528 3.13212 -0.0266113L24.9436 -0.0216403C26.2789 -0.114103 27.9944 1.45578 27.9944 2.75125V4.36587H27.9934Z" fill="#2E3192"/>
<path d="M20.5382 32.0849L20.1008 32.1913L4.31383 32.1833C4.24862 32.1714 4.18341 32.1535 4.13024 32.1127C4.03292 32.0371 3.92758 31.1016 3.92658 30.9008C3.91053 28.9908 4.12622 27.593 5.55684 26.2239C6.37549 25.4395 8.43615 24.5129 9.57282 24.6481C9.83767 24.6799 10.4296 25.0746 10.7847 25.1879C11.7117 25.4842 12.7089 25.4902 13.64 25.2088C14.8318 24.8489 14.6502 24.494 16.131 24.7743C17.4483 25.0229 18.6622 25.694 19.5129 26.722C20.8422 28.3287 20.5683 30.1461 20.5372 32.0849H20.5382Z" fill="#2E3192"/>
<path d="M26.4724 5.4665C32.2752 5.12349 37.1158 10.3283 35.6561 16.058C34.3569 21.1593 28.7117 23.6777 23.8108 22.0382C22.6471 22.4359 21.392 23.282 20.2453 23.6399C19.5832 23.8467 18.9471 23.5435 18.9622 22.7899C18.9822 21.8294 19.829 20.4216 19.8902 19.3986C15.3234 13.6698 19.2611 5.89302 26.4714 5.4665H26.4724ZM20.8914 21.6724L23.7837 20.3709C29.7881 22.946 36.8871 16.9876 33.5503 10.8234C29.9617 4.19389 18.8368 6.85742 19.5541 14.84C19.6955 16.4109 20.6606 17.8048 21.6187 18.9919L20.8904 21.6734L20.8914 21.6724Z" fill="#2E3192"/>
<path d="M11.7659 14.8241C17.7723 14.1928 18.1435 23.4003 12.8204 24.0674C7.20722 24.7713 6.0886 15.4206 11.7659 14.8241Z" fill="#2E3192"/>
<path d="M4.28785 5.05288C4.41225 4.95346 4.56775 4.94749 4.72025 4.94153H18.1807C18.9241 5.03598 18.9452 6.15548 17.9259 6.26981C16.2405 6.45872 14.1878 6.15747 12.4984 6.18232C10.0234 5.97751 7.05378 6.47065 4.63898 6.18829C4.01798 6.11571 3.90963 5.35612 4.28885 5.05189L4.28785 5.05288Z" fill="#2E3192"/>
<path d="M16.1069 9.47822C16.0036 9.57466 15.809 9.57665 15.6725 9.58659H4.5516C3.84331 9.49711 3.84331 8.42733 4.5516 8.33685H15.7568C16.2905 8.37563 16.4581 9.15212 16.1069 9.47822Z" fill="#2E3192"/>
<path d="M4.40611 11.6695L10.9844 11.6575C11.6014 11.6854 11.6084 12.7919 11.0716 12.8924H4.47433C3.88342 12.6617 3.86135 11.9707 4.40611 11.6695Z" fill="#2E3192"/>
<path d="M28.1408 9.43643C28.2803 9.57462 28.2532 10.0817 28.2472 10.2905C28.199 11.8643 27.9211 13.4571 27.8539 15.0339C27.8599 15.5768 26.2617 15.4207 26.1484 15.2407C25.9166 14.8728 26.026 14.1819 25.9869 13.7653C25.8825 12.6488 25.6909 11.4855 25.6548 10.369C25.6478 10.1413 25.5996 9.53187 25.7932 9.41058C26.0009 9.28133 27.9843 9.28133 28.1408 9.43643Z" fill="#2E3192"/>
<path d="M26.0159 16.732C27.1806 15.5817 29.0276 17.3574 27.7876 18.5296C26.5476 19.7018 24.8621 17.8714 26.0159 16.732Z" fill="#2E3192"/>
</svg>
