<svg width="28" height="27" viewBox="0 0 28 27" fill="none" xmlns="http://www.w3.org/2000/svg">
<path d="M12.25 12.25C15.6327 12.25 18.375 14.9923 18.375 18.375C18.375 18.4074 18.3748 18.4397 18.3743 18.472C18.37 18.7448 18.4934 19.0041 18.7078 19.1729C18.9222 19.3418 19.2032 19.4009 19.4675 19.3328C19.6767 19.2789 19.8968 19.25 20.125 19.25C21.5747 19.25 22.75 20.4253 22.75 21.875C22.75 23.3247 21.5747 24.5 20.125 24.5L5.25 24.5C3.317 24.5 1.75 22.933 1.75 21C1.75 19.067 3.317 17.5 5.25 17.5C5.30906 17.5 5.36774 17.5015 5.42603 17.5043C5.84117 17.5248 6.21342 17.2504 6.3167 16.8478C6.99504 14.2035 9.39549 12.25 12.25 12.25ZM20.077 17.5003C19.6418 13.5627 16.3036 10.5 12.25 10.5C8.81374 10.5 5.89329 12.7002 4.81717 15.7676C2.12015 15.9877 0 18.2462 0 21C0 23.8995 2.35051 26.25 5.25 26.25L20.125 26.25C22.5412 26.25 24.5 24.2912 24.5 21.875C24.5 19.4588 22.5412 17.5 20.125 17.5C20.109 17.5 20.093 17.5001 20.077 17.5003Z" fill="white"/>
<path d="M18.375 0.875C18.375 0.391751 17.9832 0 17.5 0C17.0167 0 16.625 0.391751 16.625 0.875V2.625C16.625 3.10825 17.0167 3.5 17.5 3.5C17.9832 3.5 18.375 3.10825 18.375 2.625V0.875ZM24.9246 4.31279C25.2663 3.97108 25.2663 3.41706 24.9246 3.07536C24.5829 2.73365 24.0289 2.73365 23.6872 3.07536L22.4497 4.31279C22.108 4.6545 22.108 5.20852 22.4497 5.55023C22.7914 5.89194 23.3455 5.89194 23.6872 5.55023L24.9246 4.31279ZM11.3128 3.07536C10.9711 2.73365 10.4171 2.73365 10.0754 3.07536C9.73367 3.41707 9.73367 3.97109 10.0754 4.31279L11.3128 5.55023C11.6545 5.89194 12.2085 5.89194 12.5503 5.55023C12.892 5.20852 12.892 4.6545 12.5503 4.31279L11.3128 3.07536ZM14.3469 8.97901C14.9128 7.80785 16.1121 6.99998 17.5 6.99998C19.433 6.99998 21 8.56698 21 10.5C21 11.3929 20.6656 12.2078 20.1152 12.8261C20.4628 13.318 20.7654 13.8439 21.017 14.3979C22.0812 13.437 22.75 12.0466 22.75 10.5C22.75 7.60048 20.3995 5.24998 17.5 5.24998C15.2124 5.24998 13.2666 6.71306 12.5471 8.75451C13.1634 8.77319 13.7651 8.84977 14.3469 8.97901ZM22.1944 16.1084C23.2444 16.4852 24.1616 17.1407 24.8569 17.9857C24.8803 17.9667 24.9029 17.9463 24.9246 17.9246C25.2663 17.5829 25.2663 17.0289 24.9246 16.6872L23.6872 15.4497C23.3455 15.108 22.7915 15.108 22.4497 15.4497C22.2687 15.6307 22.1836 15.8713 22.1944 16.1084ZM25.375 9.62498C24.8918 9.62498 24.5 10.0167 24.5 10.5C24.5 10.9832 24.8918 11.375 25.375 11.375H27.125C27.6082 11.375 28 10.9832 28 10.5C28 10.0167 27.6082 9.62498 27.125 9.62498H25.375Z" fill="white"/>
</svg>
