<svg width="52" height="40" viewBox="0 0 52 40" fill="none" xmlns="http://www.w3.org/2000/svg">
<path d="M0.327504 29.7552C-0.0516959 29.468 0.00270407 28.9916 0.00270407 28.9916L2.1035 4C2.1035 4 2.1363 3.72479 2.2587 3.58399C2.3359 3.49599 2.4335 3.36799 2.6175 3.29279C4.7303 2.42879 16.2147 -3.7924 21.9999 1.99999C22.9587 3.1108 23.9995 4.7504 23.9995 6V27.1516C23.9995 27.1516 24.0243 27.6004 23.6183 27.872C23.5227 27.936 23.1223 28.1184 22.6503 27.8824C13.7491 23.4288 3.8063 28.5008 1.2979 29.8308C0.794704 30.0976 0.402304 29.8124 0.327504 29.7552ZM50.7015 29.8308C48.1931 28.5008 38.2503 23.4288 29.3491 27.8824C28.8771 28.1184 28.4767 27.936 28.3811 27.872C27.9755 27.6004 28.0003 27.1516 28.0003 27.1516V6C28.0003 4.7504 29.0411 3.1108 29.9999 1.99999C35.7851 -3.7924 47.1963 2.42839 49.3091 3.29279C49.4931 3.36799 49.5907 3.49599 49.6679 3.58399C49.7903 3.72479 49.8231 4 49.8231 4L51.9971 28.9916C51.9971 28.9916 52.0515 29.468 51.6723 29.7552C51.5975 29.8124 51.2051 30.0976 50.7015 29.8308ZM31.4587 40.7452C31.5995 40.7112 31.8443 40.568 31.9303 40.4352C32.0247 40.2896 32.0815 40.1884 32.0995 40C32.2975 36.2484 38.5975 32.7524 50.6903 39.8808C51.0003 40.0572 51.3567 40.0392 51.6603 39.8188C52.0055 39.568 51.9999 39.1436 51.9999 39.1436V36.9268C51.9999 36.9268 52.0011 36.6212 51.8911 36.4532C51.8091 36.3284 51.7007 36.196 51.5207 36.11C43.4191 30.852 33.1775 28.5212 27.9791 35.4732C27.9067 35.6424 27.8379 35.7184 27.6879 35.8352C27.4615 36.0112 27.1855 36 27.1855 36H24.8435C24.8435 36 24.5675 36.0112 24.3411 35.8352C24.1911 35.7184 24.1223 35.6424 24.0499 35.4732C18.8515 28.5212 8.6099 30.742 0.508304 36C0.328304 36.086 0.219904 36.2184 0.137904 36.3432C0.0279041 36.5112 0.0291042 36.8168 0.0291042 36.8168V39.0336C0.0291042 39.0336 0.0235042 39.458 0.368704 39.7088C0.672304 39.9292 1.0287 39.9472 1.3387 39.7708C13.4315 32.6424 19.7315 36.2484 19.9295 40C19.9475 40.1884 20.0043 40.2896 20.0987 40.4352C20.1847 40.568 20.4295 40.7112 20.5703 40.7452C23.4579 41.4624 27.6447 41.7452 31.4587 40.7452Z" fill="#2E3192"/>
</svg>
