<svg width="40" height="40" viewBox="0 0 40 40" fill="none" xmlns="http://www.w3.org/2000/svg">
<path d="M20 2.5C20 1.11929 21.1193 0 22.5 0H37.5C38.8807 0 40 1.11929 40 2.5V37.5C40 38.8807 38.8807 40 37.5 40H22.5C21.1193 40 20 38.8807 20 37.5V2.5ZM22.5 36.25C22.5 36.9404 23.0596 37.5 23.75 37.5C24.4404 37.5 25 36.9404 25 36.25C25 35.5596 24.4404 35 23.75 35C23.0596 35 22.5 35.5596 22.5 36.25ZM27.5 36.25C27.5 36.9404 28.0596 37.5 28.75 37.5C29.4404 37.5 30 36.9404 30 36.25C30 35.5596 29.4404 35 28.75 35C28.0596 35 27.5 35.5596 27.5 36.25ZM23.75 2.5C23.0596 2.5 22.5 3.05964 22.5 3.75C22.5 4.44036 23.0596 5 23.75 5H36.25C36.9404 5 37.5 4.44036 37.5 3.75C37.5 3.05964 36.9404 2.5 36.25 2.5H23.75ZM22.5 8.75C22.5 9.44036 23.0596 10 23.75 10H36.25C36.9404 10 37.5 9.44036 37.5 8.75C37.5 8.05964 36.9404 7.5 36.25 7.5H23.75C23.0596 7.5 22.5 8.05964 22.5 8.75Z" fill="#2E3192"/>
<path d="M3.75 5C1.67893 5 0 6.67893 0 8.75V26.25C0 28.3211 1.67893 30 3.75 30H15V35H13.75C13.0596 35 12.5 35.5596 12.5 36.25C12.5 36.9404 13.0596 37.5 13.75 37.5H17.5V27.5H3.75C3.05964 27.5 2.5 26.9404 2.5 26.25V8.75C2.5 8.05964 3.05964 7.5 3.75 7.5H17.5V5H3.75Z" fill="#2E3192"/>
</svg>
