<svg width="28" height="28" viewBox="0 0 28 28" fill="none" xmlns="http://www.w3.org/2000/svg">
<path d="M20.5488 18.1018C21.9326 16.2178 22.75 13.8918 22.75 11.375C22.75 5.09276 17.6572 0 11.375 0C5.09276 0 0 5.09276 0 11.375C0 17.6572 5.09276 22.75 11.375 22.75C13.8925 22.75 16.219 21.9322 18.1033 20.5477L18.1018 20.5488C18.1534 20.6188 18.2109 20.6858 18.2743 20.7491L25.0126 27.4874C25.696 28.1709 26.804 28.1709 27.4874 27.4874C28.1709 26.804 28.1709 25.696 27.4874 25.0126L20.7491 18.2743C20.6858 18.2109 20.6188 18.1534 20.5488 18.1018ZM21 11.375C21 16.6907 16.6907 21 11.375 21C6.05926 21 1.75 16.6907 1.75 11.375C1.75 6.05926 6.05926 1.75 11.375 1.75C16.6907 1.75 21 6.05926 21 11.375Z" fill="white"/>
</svg>
