<svg width="35" height="40" viewBox="0 0 35 40" fill="none" xmlns="http://www.w3.org/2000/svg">
<path d="M17.5005 0C19.2242 0 22.1074 0.663635 24.8218 1.39941C27.5969 2.15168 30.393 3.03658 32.0376 3.57324C33.4101 4.02117 34.4486 5.23425 34.6479 6.73047C36.1394 17.9236 32.6807 26.2173 28.4858 31.7051C26.3963 34.4387 24.125 36.4763 22.1929 37.8389C21.2275 38.5196 20.3325 39.0417 19.5728 39.3994C18.8708 39.7299 18.1197 40 17.5005 40C16.8813 40 16.1302 39.7299 15.4282 39.3994C14.6684 39.0417 13.7735 38.5196 12.8081 37.8389C10.876 36.4763 8.60471 34.4387 6.51514 31.7051C2.32032 26.2173 -1.13844 17.9236 0.353027 6.73047C0.552401 5.23428 1.59092 4.02119 2.96338 3.57324C4.60801 3.03658 7.4041 2.15168 10.1792 1.39941C12.8935 0.663641 15.7767 1.14166e-05 17.5005 0ZM17.9097 24.9092C16.3532 24.9092 15.0913 26.1711 15.0913 27.7275C15.0914 29.2839 16.3533 30.5459 17.9097 30.5459C19.4659 30.5457 20.727 29.2838 20.7271 27.7275C20.7271 26.1712 19.4659 24.9094 17.9097 24.9092ZM17.9048 8C16.396 8.00009 15.2166 9.30333 15.3667 10.8047L16.356 20.6885C16.4355 21.4844 17.1049 22.0907 17.9048 22.0908C18.7047 22.0908 19.375 21.4844 19.4546 20.6885L20.4429 10.8047C20.593 9.30328 19.4137 8 17.9048 8Z" fill="#2E3192"/>
</svg>
